<svg width="59" height="50" viewBox="0 0 59 50" fill="none" xmlns="http://www.w3.org/2000/svg">
<path d="M22.0741 40.5198C21.6439 40.5198 21.2364 40.5198 20.8289 40.5198C15.4405 40.5198 10.0748 40.5198 4.68649 40.5198C1.49424 40.5198 0 39.0157 0 35.7796C0 25.4104 0 15.0412 0 4.67199C0 1.61821 1.49424 0.0229514 4.55065 0.0229514C21.1685 0.000162019 37.7863 0.000162019 54.4267 0.0229514C57.5284 0.0229514 59.0226 1.61821 59.0226 4.76315C59.0226 15.0868 59.0226 25.4332 59.0226 35.7568C59.0226 39.0612 57.551 40.5425 54.2682 40.5425C48.9252 40.5425 43.5821 40.5425 38.2391 40.5425C37.8315 40.5425 37.424 40.5425 36.6995 40.5425C37.175 42.3201 37.4693 43.9382 38.0579 45.4651C38.5334 46.7185 39.5522 47.4022 41.0011 47.2882C41.5219 47.2426 42.1331 47.1743 42.5407 47.4022C42.9935 47.6528 43.5368 48.2226 43.5142 48.6556C43.5142 49.0886 42.9482 49.5899 42.4954 49.909C42.2011 50.1141 41.703 50.0229 41.2728 50.0229C33.4167 50.0229 25.5606 50.0229 17.6819 50.0229C17.4555 50.0229 17.2291 50.0229 17.0027 50.0229C16.1197 49.9774 15.4405 49.6355 15.4405 48.61C15.4632 47.6528 16.1424 47.3338 16.9574 47.2882C18.1347 47.2198 19.5384 47.6301 20.2855 46.3994C21.01 45.1916 21.4175 43.8242 21.8703 42.4796C22.0741 41.9099 22.0061 41.2718 22.0741 40.5198ZM29.6132 2.73489C21.3269 2.73489 13.0633 2.73489 4.77705 2.73489C2.94321 2.73489 2.71681 2.98558 2.71681 4.83152C2.71681 15.2007 2.71681 25.5699 2.71681 35.9391C2.71681 37.466 3.05641 37.8078 4.55065 37.8078C21.1911 37.8078 37.8089 37.8078 54.4493 37.8078C55.9662 37.8078 56.2832 37.466 56.2832 35.9391C56.2832 27.1196 56.2832 18.3001 56.2832 9.48056C56.2832 7.74857 56.2379 5.99378 56.3058 4.26178C56.3285 3.23626 55.8304 2.80326 54.9021 2.75768C54.5173 2.73489 54.155 2.73489 53.7701 2.73489C45.7103 2.73489 37.6731 2.73489 29.6132 2.73489ZM23.5004 47.1743C27.4398 47.1743 31.5376 47.1743 35.4996 47.1743C35.0015 44.9637 34.5261 42.7759 34.028 40.5881C31.0169 40.5881 27.9152 40.5881 24.972 40.5881C24.4739 42.8443 23.9985 45.0093 23.5004 47.1743Z" fill="#1E2023"/>
<path d="M36.1562 13.1267C38.556 11.8049 40.7521 10.5743 42.9482 9.34366C44.7594 8.34093 45.5971 8.8423 45.5971 10.9617C45.5971 17.206 45.5971 23.4503 45.5971 29.6946C45.5971 31.6773 44.6915 32.2015 42.9482 31.2215C40.7521 29.9909 38.556 28.783 36.1562 27.4385C36.1562 28.4412 36.1788 29.2616 36.1562 30.0592C36.1335 31.2443 35.6807 31.7229 34.5034 31.7229C28.8208 31.7457 23.1381 31.7685 17.4555 31.7001C15.0103 31.6773 13.4029 29.9681 13.3803 27.484C13.3576 22.6755 13.3576 17.8669 13.3803 13.0583C13.4029 10.4831 15.0556 8.77393 17.6366 8.77393C23.1608 8.75114 28.6849 8.75114 34.2318 8.77393C35.726 8.77393 36.1335 9.25251 36.1562 10.7794C36.1788 11.5087 36.1562 12.2151 36.1562 13.1267ZM33.462 11.4859C33.0092 11.4859 32.6696 11.4859 32.3526 11.4859C27.6435 11.4859 22.957 11.4859 18.2479 11.4859C16.6178 11.4859 16.0744 12.01 16.0744 13.6509C16.0744 18.072 16.0744 22.4932 16.0744 26.9371C16.0744 28.5551 16.5272 29.0109 18.1573 29.0109C22.8891 29.0109 27.6209 29.0109 32.3753 29.0109C32.6922 29.0109 33.0318 28.9881 33.462 28.9654C33.462 27.8031 33.462 26.732 33.462 25.6381C33.4846 23.9289 34.3676 23.4047 35.8845 24.2252C37.6957 25.2051 39.5069 26.2306 41.3181 27.2106C41.8162 27.484 42.3143 27.7575 42.8576 28.0538C42.8576 22.8122 42.8576 17.7302 42.8576 12.5114C40.3899 13.856 38.0579 15.1322 35.726 16.3856C34.4129 17.0921 33.5073 16.5679 33.462 15.0638C33.4394 13.9243 33.462 12.7849 33.462 11.4859Z" fill="#1E2023"/>
</svg>
