<svg width="22" height="22" viewBox="0 0 22 22" fill="none" xmlns="http://www.w3.org/2000/svg">
<path d="M16.2954 0.758789H6.25608C3.17594 0.758789 0.655029 3.33296 0.655029 6.47523V16.2837C0.655029 19.426 3.17594 22.0002 6.25608 22.0002H16.2954C19.3755 22.0002 21.8964 19.426 21.8964 16.2837V6.47523C21.8964 3.33296 19.3755 0.758789 16.2954 0.758789ZM19.9968 16.1417C19.9968 18.3164 18.2571 20.1006 16.1178 20.1006H6.43361C4.30326 20.1006 2.55459 18.3164 2.55459 16.1417V6.61726C2.55459 4.44252 4.29438 2.65835 6.43361 2.65835H16.1178C18.2482 2.65835 19.9968 4.44252 19.9968 6.61726V16.1417Z" fill="#304A9A"/>
<path d="M11.271 5.9248C8.32401 5.9248 5.92737 8.36583 5.92737 11.375C5.92737 14.3841 8.31514 16.8251 11.271 16.8251C14.2269 16.8251 16.6146 14.3841 16.6146 11.375C16.6146 8.36583 14.218 5.9248 11.271 5.9248ZM11.271 14.8989C9.37144 14.8989 7.82693 13.3278 7.82693 11.3838C7.82693 9.43988 9.37144 7.86875 11.271 7.86875C13.1706 7.86875 14.7151 9.43988 14.7151 11.3838C14.7151 13.3189 13.1794 14.8989 11.271 14.8989Z" fill="#304A9A"/>
<path d="M16.8989 6.86512C17.5656 6.86512 18.106 6.31271 18.106 5.63129C18.106 4.94986 17.5656 4.39746 16.8989 4.39746C16.2321 4.39746 15.6917 4.94986 15.6917 5.63129C15.6917 6.31271 16.2321 6.86512 16.8989 6.86512Z" fill="#304A9A"/>
</svg>
