<svg width="25" height="21" viewBox="0 0 25 21" fill="none" xmlns="http://www.w3.org/2000/svg">
<path d="M23.4329 0.893193C22.4818 1.48009 21.4277 1.9144 20.3047 2.14916C19.411 1.13969 18.1276 0.517578 16.7182 0.517578C14.0025 0.517578 11.7911 2.82996 11.7911 5.68228C11.7911 6.09311 11.8369 6.48046 11.9171 6.85608C7.82642 6.6448 4.20553 4.59065 1.77633 1.45662C1.35237 2.21958 1.11174 3.11167 1.11174 4.06244C1.11174 5.85835 1.98259 7.44298 3.30031 8.37028C2.49822 8.3468 1.7305 8.11204 1.06591 7.72469V7.78338C1.06591 10.2836 2.76176 12.3847 5.01909 12.8542C4.60658 12.9716 4.17116 13.042 3.72428 13.042C3.40344 13.042 3.09406 13.0068 2.79614 12.9481C3.42636 15.0022 5.2368 16.493 7.391 16.5399C5.7066 17.925 3.58678 18.7584 1.27216 18.7584C0.871113 18.7584 0.481524 18.7349 0.103394 18.688C2.28051 20.1552 4.87013 21.0121 7.65454 21.0121C16.7068 21.0121 21.6568 13.1359 21.6568 6.3044C21.6568 6.08137 21.6568 5.85835 21.6454 5.63533C22.6079 4.90758 23.4443 3.99202 24.0975 2.95907C23.2152 3.3699 22.2641 3.65162 21.2672 3.769C22.287 3.11167 23.0662 2.1022 23.4329 0.893193Z" fill="#304A9A"/>
</svg>
