<svg width="56" height="56" viewBox="0 0 56 56" fill="none" xmlns="http://www.w3.org/2000/svg">
<g clip-path="url(#clip0)">
<path d="M9.35038 16.3945C9.35038 14.3887 9.30946 12.5465 9.37084 10.7249C9.3913 10.2746 9.59591 9.72199 9.90281 9.3945C12.7877 6.42667 15.7136 3.4793 18.6598 0.552397C18.9872 0.24538 19.5396 0.0202337 19.9898 0.0202337C27.4987 -0.000234146 35.0077 -0.000234146 42.5166 0.0202337C45.2992 0.0202337 46.6292 1.37111 46.6496 4.15474C46.6701 6.52901 46.6701 8.92374 46.6701 11.298C46.6701 11.3594 46.711 11.4208 46.7724 11.6664C47.6522 11.6664 48.5933 11.7074 49.5345 11.6664C53.6675 11.4822 56 14.5319 56 18.1752C55.9795 24.7658 56 31.3565 56 37.9676C56 41.7746 56 45.5816 56 49.3887C56 53.646 53.6266 56.0202 49.3504 56.0202C35.0486 56.0202 20.7263 56.0202 6.42455 56.0202C3.2532 56.0202 1.22762 54.6898 0.327366 51.9267C0.102302 51.2103 0.0613811 50.3916 0.0613811 49.6138C0.0409207 44.1079 0.0613811 38.6021 0.0409207 33.0963C0.0409207 29.5349 0 25.953 0 22.3916C0 19.0144 2.14834 16.6606 5.5243 16.415C6.73146 16.3126 7.95908 16.3945 9.35038 16.3945ZM27.9898 53.605C35.2327 53.605 42.4757 53.5436 49.6982 53.646C52.2557 53.6869 53.6266 51.8448 53.6266 49.7571C53.5652 39.1547 53.6061 28.5524 53.5857 17.9501C53.5857 15.4325 52.2148 13.9998 49.6982 13.9998C44.7059 13.9998 39.7136 13.9793 34.7212 14.0612C31.5703 14.1021 29.1151 15.4939 27.5192 18.2775C27.0895 19.0349 26.6394 19.8126 26.2302 20.5904C23.9795 25.0319 20.2967 27.0173 15.3862 26.9354C12.2558 26.8945 9.12532 26.8945 6.01534 26.915C3.78517 26.9354 2.39386 28.2044 2.39386 30.3126C2.35294 36.9442 2.35294 43.5758 2.39386 50.1869C2.41432 52.377 3.74425 53.605 5.95396 53.605C13.2992 53.605 20.6445 53.605 27.9898 53.605ZM44.2762 11.605C44.2762 9.00561 44.2762 6.54947 44.2762 4.1138C44.2762 2.59918 43.9898 2.3331 42.4757 2.3331C35.6829 2.3331 28.8696 2.3331 22.0767 2.3331C21.7494 2.3331 21.422 2.35357 20.9719 2.37403C20.9719 2.80386 20.9719 3.17228 20.9719 3.5407C20.9719 5.79216 20.9514 8.02316 20.9719 10.2746C20.9719 11.2161 20.5422 11.6664 19.6215 11.6664C18.4348 11.6664 17.2481 11.6664 16.0614 11.6664C14.6496 11.6664 13.2379 11.6664 11.7852 11.6664C11.7852 15.9851 11.7852 20.1811 11.7852 24.4384C13.5448 24.4384 15.202 24.4793 16.8593 24.4384C19.8465 24.336 22.0972 22.9647 23.6522 20.4267C24.3478 19.26 24.9616 18.0524 25.6573 16.8857C26.9668 14.6138 28.89 12.9764 31.3862 12.2395C32.8593 11.8097 34.4552 11.6869 35.9898 11.646C38.6905 11.5436 41.3913 11.605 44.2762 11.605ZM2.39386 25.5641C4.56266 24.0085 6.97698 24.5816 9.22762 24.3974C9.22762 22.4325 9.22762 20.5904 9.22762 18.6869C7.8977 18.6869 6.64962 18.646 5.40153 18.7074C3.94885 18.7688 2.55754 19.9968 2.41432 21.4501C2.31202 22.7395 2.39386 24.0495 2.39386 25.5641ZM13.6266 9.25123C15.4066 9.25123 16.9821 9.25123 18.578 9.25123C18.578 7.59333 18.578 5.97637 18.578 4.46175C16.9616 6.01731 15.3657 7.57286 13.6266 9.25123Z" fill="#1E2023"/>
</g>
<defs>
<clipPath id="clip0">
<rect width="56" height="56" fill="white"/>
</clipPath>
</defs>
</svg>
