<svg width="20" height="15" viewBox="0 0 20 15" fill="none" xmlns="http://www.w3.org/2000/svg">
<path opacity="0.4" d="M14.6823 6.48761C14.9296 4.01411 16.8095 2.8763 19.9755 2.43107V0.650146C13.9897 0.897496 10.7741 4.01411 10.7741 8.86217C10.7741 12.1767 12.6045 14.5017 15.5232 14.5017C17.9473 14.5017 19.8766 12.9187 19.8766 10.3957C19.8766 8.12012 18.4914 6.88337 16.6116 6.48761H14.6823ZM4.19462 6.48761C4.49144 4.01411 6.3713 2.8763 9.53738 2.43107V0.650146C3.55151 0.897496 0.335959 4.01411 0.335959 8.86217C0.335959 12.1767 2.16635 14.5017 5.08508 14.5017C7.50911 14.5017 9.43844 12.9187 9.43844 10.3957C9.43844 8.12012 8.05328 6.88337 6.17342 6.48761H4.19462Z" fill="#8C98EA"/>
</svg>
