<svg width="19" height="19" viewBox="0 0 19 19" fill="none" xmlns="http://www.w3.org/2000/svg">
<path d="M10.5436 11.2298C8.35934 11.2298 6.17509 11.2368 3.99084 11.2228C3.64749 11.2228 3.55983 11.3209 3.56714 11.6363C3.58175 13.3954 3.58175 15.1476 3.56714 16.9067C3.56714 17.2361 3.67672 17.3412 4.00545 17.3132C4.23191 17.2992 4.46568 17.3062 4.69214 17.3412C5.12314 17.4183 5.40805 17.7898 5.37882 18.2033C5.3496 18.6168 5.02818 18.9672 4.58986 18.9742C3.31876 18.9882 2.04035 18.9882 0.769249 18.9742C0.338243 18.9742 0.0314253 18.6378 0.00220451 18.2383C-0.0270163 17.7828 0.235971 17.4253 0.688892 17.3482C0.886133 17.3132 1.09798 17.3202 1.30253 17.3202C1.77006 17.3132 1.77006 17.3202 1.77006 16.8506C1.77006 16.0376 1.77006 15.2247 1.77006 14.4047C1.77006 10.0174 1.77006 5.63005 1.77737 1.24274C1.77737 1.00445 1.79928 0.745135 1.87964 0.527873C2.00383 0.191465 2.30334 0.0232617 2.6686 0.00223621C3.01194 -0.0257977 3.40642 0.212491 3.5087 0.562915C3.59636 0.871288 3.77168 0.885305 4.03467 0.885305C8.33743 0.878297 12.6475 0.885305 16.9502 0.878297C17.3228 0.878297 17.6515 0.927356 17.8561 1.27077C18.0826 1.64923 18.0606 1.97863 17.7392 2.3641C16.8041 3.49246 15.8691 4.62784 14.9121 5.74218C14.7002 5.98748 14.6929 6.14167 14.9048 6.38696C15.8618 7.50832 16.7968 8.65771 17.7465 9.79309C18.0095 10.1085 18.0752 10.4309 17.878 10.7953C17.71 11.1037 17.4616 11.2438 17.089 11.2438C14.9121 11.2228 12.7278 11.2298 10.5436 11.2298ZM15.2043 9.49172C15.0217 9.26745 14.9048 9.12728 14.7879 8.9801C14.1743 8.24421 13.5533 7.51533 12.947 6.77243C12.4502 6.1697 12.4502 5.92441 12.947 5.32868C13.6045 4.53673 14.2692 3.75178 14.9267 2.95982C14.9998 2.87571 15.0582 2.7776 15.1605 2.63743C14.9925 2.62341 14.8829 2.60939 14.7806 2.60939C11.1791 2.60939 7.57769 2.60939 3.96892 2.60238C3.63288 2.60238 3.56714 2.71452 3.56714 3.00888C3.58175 5.03433 3.58175 7.05978 3.56714 9.08523C3.56714 9.41463 3.66941 9.49172 3.99814 9.49172C7.5996 9.47771 11.2011 9.48471 14.8098 9.48471C14.9048 9.49172 14.9998 9.49172 15.2043 9.49172Z" fill="#304A9A"/>
</svg>
