<svg width="21" height="22" viewBox="0 0 21 22" fill="none" xmlns="http://www.w3.org/2000/svg">
<g clip-path="url(#clip0)">
<path d="M4.31999 15.09C3.73665 15.09 3.13943 15.1317 2.56999 15.0761C1.5561 14.9789 1.04221 13.84 1.59777 12.9928C1.86165 12.59 2.23665 12.3817 2.72277 12.3817C4.41721 12.3817 6.09777 12.3817 7.79221 12.3817C8.52832 12.3817 9.11165 12.965 9.11165 13.7011C9.12554 15.4095 9.12554 17.1039 9.11165 18.8122C9.11165 19.5206 8.52832 20.1039 7.81999 20.1317C7.11165 20.1733 6.47276 19.6595 6.41721 18.9372C6.37554 18.3539 6.40332 17.7706 6.31999 17.1317C6.22276 17.215 6.12554 17.2983 6.02832 17.3956C4.81999 18.6039 3.62554 19.8122 2.41721 21.0067C1.84776 21.5622 1.15332 21.6595 0.583876 21.2428C-0.138347 20.7289 -0.193902 19.7706 0.458876 19.1039C1.38943 18.1595 2.33388 17.215 3.27832 16.2845C3.63943 15.9233 4.01443 15.5761 4.38943 15.2289C4.36165 15.2011 4.33388 15.1456 4.31999 15.09Z" fill="white"/>
<path d="M16.6475 15.24C17.828 16.4206 19.0225 17.615 20.203 18.7956C20.3141 18.9067 20.4391 19.0317 20.5503 19.1428C21.1336 19.7539 21.1475 20.5734 20.578 21.1289C20.0225 21.6706 19.2169 21.6567 18.6197 21.0734C17.7725 20.24 16.9391 19.3928 16.0919 18.5456C15.6197 18.0734 15.1614 17.615 14.703 17.1428C14.6753 17.1567 14.6336 17.1706 14.6058 17.1845C14.6058 17.6845 14.6197 18.1984 14.6058 18.6984C14.5919 19.4484 14.203 19.9484 13.5364 20.1012C12.7169 20.2956 11.8836 19.6845 11.8836 18.8373C11.8697 17.115 11.8697 15.3789 11.8836 13.6567C11.8836 12.9623 12.4808 12.3928 13.1753 12.3928C14.8975 12.3789 16.6058 12.3789 18.328 12.3928C19.0364 12.3928 19.6058 12.99 19.6336 13.6984C19.6614 14.3928 19.1475 15.0178 18.4669 15.0873C18.0086 15.1289 17.5503 15.115 17.0919 15.115C16.953 15.115 16.828 15.115 16.6891 15.115C16.6614 15.1706 16.6475 15.2123 16.6475 15.24Z" fill="white"/>
<path d="M16.6731 6.88975C17.2426 6.88975 17.8259 6.87586 18.3953 6.88975C18.9509 6.91753 19.4092 7.30641 19.562 7.84808C19.7148 8.38975 19.562 8.97308 19.1037 9.29253C18.8676 9.45919 18.5481 9.58419 18.2564 9.59808C16.5759 9.62586 14.8953 9.62586 13.2287 9.61197C12.437 9.61197 11.8814 9.04253 11.8676 8.25086C11.8537 6.58419 11.8537 4.91753 11.8676 3.25086C11.8676 2.48697 12.4509 1.90364 13.187 1.86197C13.9231 1.83419 14.5203 2.37586 14.5898 3.15364C14.6314 3.59808 14.6037 4.05641 14.6176 4.50086C14.6176 4.61197 14.6314 4.72308 14.6453 4.88975C14.7842 4.75086 14.8953 4.66753 14.9926 4.5703C16.1731 3.38975 17.3676 2.1953 18.5481 1.01475C19.0898 0.473081 19.7009 0.348081 20.2564 0.653637C21.1176 1.11197 21.2703 2.16753 20.562 2.88975C19.4926 3.97308 18.4092 5.05641 17.3259 6.12586C17.1037 6.34808 16.8676 6.55641 16.6314 6.77864C16.6453 6.80641 16.6592 6.84808 16.6731 6.88975Z" fill="white"/>
<path d="M4.41276 6.89236C4.24609 6.7118 4.16276 6.61458 4.06554 6.51736C2.87109 5.32292 1.67665 4.12847 0.482205 2.93403C0.0377604 2.48958 -0.128907 1.9618 0.107205 1.36458C0.440538 0.531248 1.42665 0.239581 2.14887 0.767359C2.28776 0.864581 2.42665 1.00347 2.55165 1.12847C3.70443 2.28125 4.85721 3.43403 6.00998 4.57292C6.10721 4.67014 6.20443 4.76736 6.39887 4.94792C6.39887 4.39236 6.39887 3.93403 6.39887 3.4618C6.39887 3.00347 6.49609 2.57292 6.85721 2.25347C7.27387 1.89236 7.74609 1.79514 8.24609 1.98958C8.75998 2.18403 9.10721 2.5868 9.12109 3.15625C9.12109 4.87847 9.12109 6.62847 9.1072 8.39236C9.09332 9.04514 8.52387 9.61458 7.8572 9.61458C6.1072 9.62847 4.37109 9.62847 2.63498 9.61458C1.94054 9.60069 1.37109 8.9618 1.3572 8.26736C1.34332 7.60069 1.89887 6.97569 2.57943 6.92014C2.87109 6.89236 3.16276 6.90625 3.46832 6.90625C3.74609 6.89236 4.02387 6.89236 4.41276 6.89236Z" fill="white"/>
</g>
<defs>
<clipPath id="clip0">
<rect width="21" height="21" fill="white" transform="translate(0 0.5)"/>
</clipPath>
</defs>
</svg>
