<svg width="16" height="16" viewBox="0 0 16 16" fill="none" xmlns="http://www.w3.org/2000/svg">
<path d="M3.66142 13.9365C4.10586 13.9365 4.56089 13.9048 4.99475 13.9471C5.76724 14.0212 6.15877 14.8889 5.73549 15.5344C5.53443 15.8413 5.24872 16 4.87835 16C3.58734 16 2.30692 16 1.01591 16C0.455067 16 0.0106221 15.5556 0.0106221 14.9947C4.00441e-05 13.6931 4.00441e-05 12.4021 0.0106221 11.1006C0.0106221 10.5609 0.455067 10.1164 0.994749 10.0953C1.53443 10.0635 2.0212 10.4551 2.06353 11.0053C2.09528 11.4498 2.07411 11.8942 2.13761 12.381C2.21168 12.3175 2.28575 12.254 2.35983 12.1799C3.28046 11.2593 4.19052 10.3386 5.11115 9.4286C5.54501 9.00532 6.07411 8.93124 6.50798 9.2487C7.05824 9.64024 7.10057 10.3704 6.60322 10.8783C5.89422 11.5979 5.17464 12.3175 4.45507 13.0265C4.17993 13.3016 3.89422 13.5662 3.60851 13.8307C3.62967 13.8519 3.65083 13.8942 3.66142 13.9365Z" fill="white"/>
<path d="M12.3599 13.8401C11.4604 12.9406 10.5503 12.0306 9.65087 11.1311C9.56621 11.0464 9.47098 10.9512 9.38632 10.8665C8.94187 10.4009 8.93129 9.77659 9.36516 9.35331C9.78844 8.94061 10.4022 8.95119 10.8572 9.39563C11.5027 10.0306 12.1376 10.6761 12.7831 11.3216C13.1429 11.6813 13.4921 12.0306 13.8413 12.3903C13.8625 12.3798 13.8943 12.3692 13.9154 12.3586C13.9154 11.9776 13.9048 11.5861 13.9154 11.2052C13.926 10.6337 14.2223 10.2528 14.7302 10.1364C15.3546 9.98823 15.9895 10.4538 15.9895 11.0993C16.0001 12.4115 16.0001 13.7343 15.9895 15.0464C15.9895 15.5755 15.5345 16.0094 15.0054 16.0094C13.6932 16.02 12.3916 16.02 11.0794 16.0094C10.5398 16.0094 10.1059 15.5544 10.0847 15.0147C10.0636 14.4856 10.4551 14.0094 10.9736 13.9565C11.3228 13.9247 11.672 13.9353 12.0212 13.9353C12.1271 13.9353 12.2223 13.9353 12.3281 13.9353C12.3493 13.893 12.3599 13.8612 12.3599 13.8401Z" fill="white"/>
<path d="M12.3387 2.07321C11.9048 2.07321 11.4604 2.08379 11.0265 2.07321C10.6032 2.05205 10.254 1.75575 10.1376 1.34305C10.0212 0.930355 10.1376 0.485911 10.4868 0.242525C10.6667 0.11554 10.9101 0.0203024 11.1323 0.00972035C12.4127 -0.0114437 13.6932 -0.0114437 14.963 -0.000861661C15.5662 -0.000861661 15.9895 0.433001 16 1.03618C16.0106 2.30602 16.0106 3.57586 16 4.8457C16 5.42771 15.5556 5.87215 14.9948 5.9039C14.4339 5.92506 13.9789 5.51237 13.926 4.91977C13.8942 4.58115 13.9154 4.23194 13.9048 3.89332C13.9048 3.80866 13.8942 3.72401 13.8836 3.59702C13.7778 3.70284 13.6932 3.76633 13.6191 3.84041C12.7196 4.73988 11.8096 5.64993 10.9101 6.5494C10.4974 6.9621 10.0318 7.05734 9.60851 6.82454C8.95243 6.47533 8.83602 5.6711 9.37571 5.12083C10.1905 4.29543 11.0159 3.47004 11.8413 2.65522C12.0106 2.48591 12.1905 2.32718 12.3704 2.15787C12.3598 2.1367 12.3493 2.10496 12.3387 2.07321Z" fill="white"/>
<path d="M3.5873 2.08396C3.71429 2.22153 3.77778 2.2956 3.85185 2.36968C4.7619 3.27973 5.67196 4.18978 6.58201 5.09984C6.92063 5.43846 7.04762 5.84058 6.86772 6.2956C6.61376 6.93053 5.86243 7.15275 5.31217 6.75063C5.20635 6.67656 5.10053 6.57074 5.00529 6.4755C4.12698 5.59719 3.24868 4.71888 2.37037 3.85116C2.2963 3.77709 2.22222 3.70301 2.07407 3.56545C2.07407 3.98873 2.07407 4.33793 2.07407 4.69772C2.07407 5.04693 2 5.37497 1.72487 5.61836C1.40741 5.89349 1.04762 5.96756 0.666667 5.81941C0.275132 5.67127 0.010582 5.36439 0 4.93052C0 3.61836 0 2.28502 0.010582 0.941107C0.021164 0.443752 0.455026 0.00988963 0.962963 0.00988963C2.2963 -0.000692378 3.61905 -0.000692378 4.9418 0.00988963C5.4709 0.0204716 5.90476 0.507244 5.91534 1.03634C5.92593 1.54428 5.50265 2.02047 4.98413 2.0628C4.7619 2.08396 4.53968 2.07338 4.30688 2.07338C4.09524 2.08396 3.8836 2.08396 3.5873 2.08396Z" fill="white"/>
</svg>
