<svg width="21" height="20" viewBox="0 0 21 20" fill="none" xmlns="http://www.w3.org/2000/svg">
<g opacity="0.4">
<path d="M8.54218 15.1459C7.50403 15.1459 6.55615 15.1459 5.60827 15.1459C4.75067 15.1459 3.88178 15.1459 3.02418 15.1459C1.34283 15.1348 0.0564213 14.0011 0.0338528 12.361C-0.0112843 9.16896 -0.0112843 5.96588 0.0338528 2.7738C0.0564213 1.15575 1.34283 0.0110072 2.99033 0C7.98925 0 12.9995 0 17.9984 0C19.7587 0 20.9887 1.22179 21 2.94992C21 6.03192 21 9.12493 21 12.2069C21 13.913 19.7474 15.1238 17.9871 15.1348C17.4793 15.1348 16.9715 15.1899 16.475 15.1238C15.5271 14.9807 14.8614 15.388 14.1956 15.9934C12.8076 17.2482 11.3632 18.437 9.94143 19.6588C9.63675 19.923 9.28694 20.1431 8.94841 19.8899C8.73401 19.7248 8.58732 19.3506 8.57603 19.0644C8.51961 17.7876 8.54218 16.5107 8.54218 15.1459ZM9.99785 17.6775C10.28 17.4463 10.4718 17.3033 10.6523 17.1492C11.8146 16.1475 12.9656 15.1238 14.1617 14.1552C14.4664 13.913 14.9178 13.7589 15.3127 13.7259C16.1478 13.6599 16.9941 13.7039 17.8404 13.7039C19.014 13.7039 19.5443 13.1756 19.5443 12.0198C19.5443 9.05889 19.5443 6.09797 19.5443 3.13704C19.5443 1.92625 19.014 1.39791 17.7614 1.39791C12.9318 1.39791 8.09081 1.39791 3.26115 1.39791C2.01988 1.39791 1.47824 1.92625 1.46695 3.13704C1.45567 6.09797 1.45567 9.05889 1.46695 12.0198C1.46695 13.1866 2.01988 13.7039 3.23858 13.7039C5.13434 13.7039 7.01881 13.7039 8.91456 13.7039C9.7496 13.7039 9.99785 13.9351 9.99785 14.7386C9.99785 15.6852 9.99785 16.6098 9.99785 17.6775Z" fill="#304A9A"/>
<path d="M10.4832 6.43964C11.149 6.42863 11.6681 6.91294 11.6906 7.54035C11.7019 8.16776 11.1828 8.70711 10.5396 8.72912C9.90772 8.75114 9.35479 8.2228 9.33222 7.59539C9.32094 6.95697 9.81744 6.45064 10.4832 6.43964Z" fill="#304A9A"/>
<path d="M6.63493 6.43964C7.31199 6.42863 7.8085 6.90194 7.8085 7.56237C7.81978 8.21179 7.31199 8.72913 6.6575 8.74014C6.02558 8.75114 5.48394 8.2228 5.47266 7.59539C5.47266 6.93496 5.95788 6.45065 6.63493 6.43964Z" fill="#304A9A"/>
<path d="M15.5387 7.55118C15.55 8.17858 15.0309 8.71794 14.3877 8.72894C13.7671 8.73995 13.2029 8.21161 13.1916 7.59521C13.1803 6.95679 13.6994 6.45046 14.3426 6.43945C15.0309 6.43945 15.5274 6.90175 15.5387 7.55118Z" fill="#304A9A"/>
</g>
</svg>
