<svg width="18" height="19" viewBox="0 0 18 19" fill="none" xmlns="http://www.w3.org/2000/svg">
<path d="M0 9.06059C0.0369231 7.61285 0.683077 6.58928 1.92923 6.01756C3.18462 5.44584 4.39385 5.64871 5.43692 6.5524C5.69538 6.77371 5.87077 6.78293 6.14769 6.63539C7.8 5.79625 9.45231 4.96633 11.1138 4.15486C11.3908 4.01654 11.5108 3.89666 11.4646 3.53703C11.2338 1.94174 12.5631 0.24502 14.16 0.0329298C16.0154 -0.216046 17.7138 0.973504 17.9538 2.69789C18.1662 4.18252 17.52 5.49195 16.2554 6.17432C15.0369 6.82904 13.5969 6.63539 12.5077 5.65793C12.3138 5.48272 12.1754 5.46428 11.9538 5.57494C10.2462 6.44174 8.53846 7.2901 6.82154 8.13846C6.58154 8.25834 6.45231 8.38744 6.54462 8.66408C6.56308 8.71941 6.57231 8.79318 6.55385 8.8485C6.36 9.57699 6.77538 9.86285 7.37538 10.1487C8.87077 10.8495 10.3477 11.6057 11.8154 12.3526C12.12 12.5094 12.3138 12.5278 12.6092 12.2696C13.6246 11.3567 15.0738 11.1999 16.2462 11.8178C17.5015 12.4817 18.1477 13.7542 17.9723 15.2389C17.8338 16.4653 16.8277 17.5811 15.5631 17.9131C13.3292 18.5032 11.2246 16.659 11.4738 14.3536C11.4923 14.2245 11.3723 13.994 11.2615 13.9387C9.51692 13.0442 7.76308 12.1866 6.00923 11.2922C5.74154 11.1538 5.63077 11.3106 5.46462 11.4489C3.55385 13.0995 0.627692 12.159 0.0738462 9.68764C0.0276923 9.46633 0.0184615 9.2358 0 9.06059ZM14.7138 4.90178C15.6092 4.911 16.3569 4.18252 16.3754 3.28805C16.3938 2.39359 15.6185 1.60977 14.7138 1.619C13.8277 1.62822 13.0892 2.37514 13.0892 3.26961C13.0892 4.18252 13.8092 4.90178 14.7138 4.90178ZM13.0892 14.7317C13.0892 15.6262 13.8369 16.3639 14.7231 16.3731C15.6092 16.3731 16.3569 15.6262 16.3754 14.7409C16.3846 13.8372 15.6185 13.0811 14.7046 13.0903C13.8 13.0995 13.0892 13.828 13.0892 14.7317ZM3.27692 10.619C4.2 10.6098 4.90154 9.90895 4.90154 8.98682C4.90154 8.05547 4.17231 7.35465 3.23077 7.36387C2.33538 7.37309 1.59692 8.12924 1.62462 9.01449C1.63385 9.9274 2.36308 10.6282 3.27692 10.619Z" fill="#304A9A"/>
</svg>
