<svg width="22" height="17" viewBox="0 0 22 17" fill="none" xmlns="http://www.w3.org/2000/svg">
<g opacity="0.4">
<path d="M19.7379 9.09324C19.7379 9.7699 19.7379 10.4558 19.7379 11.151C19.7379 12.8288 19.7379 14.5065 19.7379 16.1843C19.7379 16.8517 19.5813 17 18.8763 17C16.7126 17 14.5488 17 12.3948 17C9.31069 17 6.21679 17 3.13268 17C2.42774 17 2.28087 16.8517 2.28087 16.175C2.28087 13.9782 2.28087 11.7721 2.28087 9.57525C2.28087 9.4084 2.28087 9.24155 2.28087 9.10251C1.67384 8.88931 1.09618 8.67612 0.528315 8.48146C0.0779366 8.32388 -0.0493442 8.02726 0.0485641 7.61014C0.596851 5.24646 1.16472 2.90131 1.7228 0.546892C1.8305 0.0834242 2.15359 0 2.59418 0C5.61955 0.00926936 8.64492 0 11.6605 0.00926936C14.2257 0.00926936 16.8007 0.00926936 19.3659 0.00926936C20.0708 0.00926936 20.1589 0.0834242 20.3156 0.741549C20.8541 2.98473 21.3926 5.23719 21.9311 7.48037C22.0779 8.10142 22.0094 8.28681 21.3926 8.52781C20.8835 8.73173 20.3352 8.88931 19.7379 9.09324ZM4.36632 15.8969C4.36632 15.6652 4.36632 15.4798 4.36632 15.2944C4.36632 13.7835 4.36632 12.2819 4.36632 10.771C4.36632 10.1592 4.53277 10.0109 5.17896 10.0109C6.50072 10.0109 7.8127 10.0109 9.13446 10.0109C9.72191 10.0109 9.88835 10.1685 9.88835 10.7246C9.88835 12.2819 9.88835 13.8299 9.88835 15.3871C9.88835 15.554 9.88835 15.7116 9.88835 15.8784C12.8158 15.8784 15.6845 15.8784 18.5434 15.8784C18.5434 13.5981 18.5434 11.355 18.5434 9.18593C17.8581 9.00981 17.2315 8.82443 16.5853 8.67612C16.3601 8.6205 16.0762 8.60196 15.8706 8.67612C14.3432 9.24155 12.8354 9.24155 11.3178 8.63904C11.1514 8.57415 10.9066 8.57415 10.7402 8.63904C9.18341 9.24155 7.64625 9.26009 6.0993 8.63904C5.97202 8.59269 5.80557 8.54635 5.68808 8.57415C4.96356 8.76881 4.23904 8.99128 3.50473 9.20447C3.50473 11.392 3.50473 13.6445 3.50473 15.8969C3.77887 15.8969 4.03343 15.8969 4.36632 15.8969ZM7.01964 1.11232C6.80424 3.28135 6.59863 5.42257 6.39303 7.54526C7.4896 8.07361 8.76241 8.1385 9.91773 7.76772C10.2702 7.65649 10.4268 7.48964 10.4171 7.1096C10.3975 5.26499 10.4073 3.42039 10.4073 1.57579C10.4073 1.42748 10.3877 1.27917 10.3779 1.11232C9.26174 1.11232 8.17496 1.11232 7.01964 1.11232ZM15.6062 7.5638C15.3908 5.3855 15.1852 3.24427 14.9698 1.12159C13.8145 1.12159 12.7179 1.12159 11.5822 1.12159C11.5822 3.21647 11.5724 5.27426 11.6017 7.33206C11.6017 7.46183 11.7976 7.64722 11.9346 7.70284C13.1683 8.14776 14.3823 8.10142 15.6062 7.5638ZM2.77042 1.10305C2.2515 3.29062 1.75217 5.44111 1.24305 7.58233C2.26129 8.02726 3.24038 8.10142 4.25862 7.88822C5.18875 7.69357 5.22792 7.64722 5.30624 6.76663C5.31603 6.67394 5.32582 6.58124 5.33561 6.48855C5.50206 4.69956 5.6685 2.91985 5.84474 1.10305C4.8167 1.10305 3.81804 1.10305 2.77042 1.10305ZM20.7464 7.58233C20.2275 5.40404 19.7281 3.25354 19.219 1.10305C18.1714 1.10305 17.1727 1.10305 16.1545 1.10305C16.3503 3.17939 16.5363 5.22792 16.7419 7.26718C16.7517 7.40622 16.9182 7.60087 17.0552 7.65649C18.2693 8.1385 19.4834 8.12923 20.7464 7.58233ZM5.57059 11.1047C5.57059 12.7268 5.57059 14.2933 5.57059 15.8784C6.6378 15.8784 7.66583 15.8784 8.68408 15.8784C8.68408 14.2655 8.68408 12.6897 8.68408 11.1047C7.64625 11.1047 6.6378 11.1047 5.57059 11.1047Z" fill="#304A9A"/>
<path d="M14.2358 15.0073C13.3448 15.0073 12.4441 15.0073 11.5531 15.0073C11.0342 15.0073 10.8384 14.8312 10.8384 14.3399C10.8286 13.1071 10.8286 11.8742 10.8384 10.6507C10.8384 10.1872 11.0244 10.0111 11.5238 10.0111C13.3253 10.0018 15.1366 10.0018 16.9381 10.0111C17.4276 10.0111 17.6234 10.178 17.6332 10.6507C17.643 11.8835 17.643 13.1163 17.6332 14.3399C17.6234 14.8497 17.4276 15.0073 16.8695 15.0166C15.9982 15.0166 15.117 15.0073 14.2358 15.0073ZM11.9937 13.8764C13.5015 13.8764 14.9701 13.8764 16.429 13.8764C16.429 12.9402 16.429 12.0411 16.429 11.1327C14.931 11.1327 13.4721 11.1327 11.9937 11.1327C11.9937 12.0596 11.9937 12.9495 11.9937 13.8764Z" fill="#304A9A"/>
</g>
</svg>
